<?xml version="1.0" encoding="UTF-8"?>
<!DOCTYPE svg PUBLIC "-//W3C//DTD SVG 1.1//EN" "http://www.w3.org/Graphics/SVG/1.1/DTD/svg11.dtd">
<svg xmlns="http://www.w3.org/2000/svg" version="1.1" width="500px" height="500px" style="shape-rendering:geometricPrecision; text-rendering:geometricPrecision; image-rendering:optimizeQuality; fill-rule:evenodd; clip-rule:evenodd" xmlns:xlink="http://www.w3.org/1999/xlink">
<g><path style="opacity:1" fill="#e9c578" d="M 193.5,49.5 C 199.058,49.0008 204.392,49.6674 209.5,51.5C 209.973,52.9063 210.973,53.573 212.5,53.5C 212.973,54.9063 213.973,55.573 215.5,55.5C 215.5,57.5 216.5,58.5 218.5,58.5C 221.231,60.9464 223.231,63.9464 224.5,67.5C 224.12,69.698 224.787,71.3646 226.5,72.5C 226.054,75.0101 226.72,77.0101 228.5,78.5C 228.432,82.5704 229.432,86.237 231.5,89.5C 233.554,99.3716 234.554,109.372 234.5,119.5C 234.095,129.681 234.095,139.681 234.5,149.5C 234.55,155.389 233.884,161.056 232.5,166.5C 230.862,167.705 230.529,169.038 231.5,170.5C 231.5,170.833 231.5,171.167 231.5,171.5C 229.345,173.617 228.345,176.284 228.5,179.5C 228.062,183.313 226.729,186.646 224.5,189.5C 223.094,189.973 222.427,190.973 222.5,192.5C 220.323,198.007 216.99,202.674 212.5,206.5C 211.5,206.833 210.833,207.5 210.5,208.5C 207.279,212.776 203.279,216.109 198.5,218.5C 196.62,218.229 195.287,218.896 194.5,220.5C 179.742,227.629 165.409,226.963 151.5,218.5C 151.027,217.094 150.027,216.427 148.5,216.5C 146.973,216.573 145.973,215.906 145.5,214.5C 145.027,213.094 144.027,212.427 142.5,212.5C 141.5,212.167 140.833,211.5 140.5,210.5C 140.5,209.167 139.833,208.5 138.5,208.5C 137.662,208.158 137.328,207.492 137.5,206.5C 137.167,205.5 136.5,204.833 135.5,204.5C 134.167,203.833 133.167,202.833 132.5,201.5C 132.715,199.821 132.048,198.821 130.5,198.5C 129.662,198.158 129.328,197.492 129.5,196.5C 129.573,194.973 128.906,193.973 127.5,193.5C 126.011,191.355 125.011,189.022 124.5,186.5C 124.771,184.62 124.104,183.287 122.5,182.5C 122.5,181.833 122.5,181.167 122.5,180.5C 121.613,176.581 120.279,172.915 118.5,169.5C 118.5,169.167 118.5,168.833 118.5,168.5C 119.471,167.038 119.138,165.705 117.5,164.5C 114.572,152.178 114.906,139.845 118.5,127.5C 120.382,126.779 120.715,125.779 119.5,124.5C 121.05,119.275 123.05,114.275 125.5,109.5C 126.906,109.027 127.573,108.027 127.5,106.5C 127.5,106.167 127.5,105.833 127.5,105.5C 128.906,105.027 129.573,104.027 129.5,102.5C 129.66,100.847 130.326,99.5137 131.5,98.5C 133.048,98.1788 133.715,97.1788 133.5,95.5C 133.833,94.5 134.5,93.8333 135.5,93.5C 138.605,90.7251 140.938,87.3918 142.5,83.5C 145.478,82.5223 147.478,80.5223 148.5,77.5C 149.5,77.1667 150.167,76.5 150.5,75.5C 151.833,74.8333 152.833,73.8333 153.5,72.5C 154.5,72.1667 155.167,71.5 155.5,70.5C 156.5,70.1667 157.167,69.5 157.5,68.5C 157.833,67.5 158.5,66.8333 159.5,66.5C 161.027,66.573 162.027,65.9063 162.5,64.5C 163.945,62.9373 165.611,61.604 167.5,60.5C 169.179,60.7148 170.179,60.0481 170.5,58.5C 170.842,57.6618 171.508,57.3284 172.5,57.5C 174.179,57.7148 175.179,57.0481 175.5,55.5C 177.05,54.5592 178.716,53.8925 180.5,53.5C 182.153,53.3404 183.486,52.6737 184.5,51.5C 184.833,51.5 185.167,51.5 185.5,51.5C 188.495,51.7062 191.162,51.0395 193.5,49.5 Z"/></g>
<g><path style="opacity:1" fill="#e9c578" d="M 297.5,49.5 C 301.846,49.3343 306.179,49.501 310.5,50C 311.416,50.2784 312.082,50.7784 312.5,51.5C 315.551,53.3523 318.884,54.6857 322.5,55.5C 324.153,55.6596 325.486,56.3263 326.5,57.5C 326.973,58.9063 327.973,59.573 329.5,59.5C 331.777,60.4486 333.777,61.7819 335.5,63.5C 336.539,65.5311 338.205,66.8645 340.5,67.5C 341.5,70.5 343.5,72.5 346.5,73.5C 347.5,73.8333 348.167,74.5 348.5,75.5C 348.833,76.5 349.5,77.1667 350.5,77.5C 350.833,78.5 351.5,79.1667 352.5,79.5C 352.738,81.4044 353.738,82.7377 355.5,83.5C 355.833,84.5 356.5,85.1667 357.5,85.5C 357.5,87.5 358.5,88.5 360.5,88.5C 361.925,89.922 362.925,91.5887 363.5,93.5C 363.427,95.0269 364.094,96.0269 365.5,96.5C 365.427,98.0269 366.094,99.0269 367.5,99.5C 368.338,99.8417 368.672,100.508 368.5,101.5C 368.427,103.027 369.094,104.027 370.5,104.5C 371.338,104.842 371.672,105.508 371.5,106.5C 371.427,108.027 372.094,109.027 373.5,109.5C 382.239,126.527 384.906,144.527 381.5,163.5C 380.009,165.871 379.009,168.538 378.5,171.5C 378.624,172.107 378.957,172.44 379.5,172.5C 377.222,183.388 372.555,193.055 365.5,201.5C 364.094,201.973 363.427,202.973 363.5,204.5C 362.5,204.833 361.833,205.5 361.5,206.5C 360.772,208.735 359.439,210.568 357.5,212C 354.284,214.39 350.95,216.556 347.5,218.5C 345.62,218.229 344.287,218.896 343.5,220.5C 329.652,227.383 315.985,227.05 302.5,219.5C 302.027,218.094 301.027,217.427 299.5,217.5C 298.508,217.672 297.842,217.338 297.5,216.5C 297.027,215.094 296.027,214.427 294.5,214.5C 294.5,213.167 293.833,212.5 292.5,212.5C 290.833,210.167 288.833,208.167 286.5,206.5C 286.043,204.227 284.71,202.894 282.5,202.5C 282.446,200.368 281.446,199.035 279.5,198.5C 277.917,196.337 276.584,194.004 275.5,191.5C 275.598,189.447 274.931,187.78 273.5,186.5C 273.539,183.911 272.539,181.911 270.5,180.5C 266.485,172.08 264.485,163.08 264.5,153.5C 264.743,140.684 264.743,127.684 264.5,114.5C 264.579,105.702 265.579,97.035 267.5,88.5C 268.612,86.4006 269.279,84.0673 269.5,81.5C 270.768,74.9828 273.102,68.9828 276.5,63.5C 280.473,60.1938 284.14,56.5271 287.5,52.5C 288.209,51.596 289.209,51.2627 290.5,51.5C 293.152,51.5905 295.485,50.9238 297.5,49.5 Z"/></g>
<g><path style="opacity:0.514" fill="#515151" d="M 193.5,49.5 C 191.162,51.0395 188.495,51.7062 185.5,51.5C 187.838,49.9605 190.505,49.2938 193.5,49.5 Z"/></g>
<g><path style="opacity:0.675" fill="#6a6a6a" d="M 297.5,49.5 C 295.485,50.9238 293.152,51.5905 290.5,51.5C 292.438,49.8372 294.772,49.1706 297.5,49.5 Z"/></g>
<g><path style="opacity:0.008" fill="#181818" d="M 209.5,51.5 C 211.027,51.427 212.027,52.0937 212.5,53.5C 210.973,53.573 209.973,52.9063 209.5,51.5 Z"/></g>
<g><path style="opacity:0.231" fill="#1b1b1b" d="M 184.5,51.5 C 183.486,52.6737 182.153,53.3404 180.5,53.5C 181.287,51.8958 182.62,51.2291 184.5,51.5 Z"/></g>
<g><path style="opacity:0.149" fill="#3c3c3c" d="M 312.5,51.5 C 316.327,51.7516 319.66,53.0849 322.5,55.5C 318.884,54.6857 315.551,53.3523 312.5,51.5 Z"/></g>
<g><path style="opacity:0.004" fill="#151515" d="M 212.5,53.5 C 214.027,53.427 215.027,54.0937 215.5,55.5C 213.973,55.573 212.973,54.9063 212.5,53.5 Z"/></g>
<g><path style="opacity:0.302" fill="#4d4d4d" d="M 287.5,52.5 C 284.14,56.5271 280.473,60.1938 276.5,63.5C 279.167,58.8333 282.833,55.1667 287.5,52.5 Z"/></g>
<g><path style="opacity:0.612" fill="#666666" d="M 175.5,55.5 C 175.179,57.0481 174.179,57.7148 172.5,57.5C 173.29,56.5987 174.29,55.9321 175.5,55.5 Z"/></g>
<g><path style="opacity:0.341" fill="#4e4e4e" d="M 215.5,55.5 C 216.833,56.1667 217.833,57.1667 218.5,58.5C 216.5,58.5 215.5,57.5 215.5,55.5 Z"/></g>
<g><path style="opacity:0.008" fill="#171717" d="M 326.5,57.5 C 328.027,57.427 329.027,58.0937 329.5,59.5C 327.973,59.573 326.973,58.9063 326.5,57.5 Z"/></g>
<g><path style="opacity:0.635" fill="#5c5c5c" d="M 170.5,58.5 C 170.179,60.0481 169.179,60.7148 167.5,60.5C 168.29,59.5987 169.29,58.9321 170.5,58.5 Z"/></g>
<g><path style="opacity:0.008" fill="#2b2b2b" d="M 335.5,63.5 C 337.754,64.1237 339.421,65.457 340.5,67.5C 338.205,66.8645 336.539,65.5311 335.5,63.5 Z"/></g>
<g><path style="opacity:0.353" fill="#262626" d="M 162.5,64.5 C 162.027,65.9063 161.027,66.573 159.5,66.5C 159.973,65.0937 160.973,64.427 162.5,64.5 Z"/></g>
<g><path style="opacity:0.188" fill="#1e1e1e" d="M 157.5,68.5 C 157.167,69.5 156.5,70.1667 155.5,70.5C 155.5,69.1667 156.167,68.5 157.5,68.5 Z"/></g>
<g><path style="opacity:0.561" fill="#686868" d="M 340.5,67.5 C 342.833,69.1667 344.833,71.1667 346.5,73.5C 343.5,72.5 341.5,70.5 340.5,67.5 Z"/></g>
<g><path style="opacity:0.424" fill="#4d4d4d" d="M 224.5,67.5 C 225.537,68.9303 226.204,70.597 226.5,72.5C 224.787,71.3646 224.12,69.698 224.5,67.5 Z"/></g>
<g><path style="opacity:0.165" fill="#191919" d="M 155.5,70.5 C 155.167,71.5 154.5,72.1667 153.5,72.5C 153.5,71.1667 154.167,70.5 155.5,70.5 Z"/></g>
<g><path style="opacity:0.184" fill="#393939" d="M 153.5,72.5 C 152.833,73.8333 151.833,74.8333 150.5,75.5C 150.5,73.5 151.5,72.5 153.5,72.5 Z"/></g>
<g><path style="opacity:0.004" fill="#1f1f1f" d="M 348.5,75.5 C 349.833,75.5 350.5,76.1667 350.5,77.5C 349.5,77.1667 348.833,76.5 348.5,75.5 Z"/></g>
<g><path style="opacity:0.231" fill="#3c3c3c" d="M 150.5,75.5 C 150.167,76.5 149.5,77.1667 148.5,77.5C 148.5,76.1667 149.167,75.5 150.5,75.5 Z"/></g>
<g><path style="opacity:0.867" fill="#5d5d5d" d="M 226.5,72.5 C 227.458,74.3024 228.125,76.3024 228.5,78.5C 226.72,77.0101 226.054,75.0101 226.5,72.5 Z"/></g>
<g><path style="opacity:0.004" fill="#0a0a0a" d="M 350.5,77.5 C 351.833,77.5 352.5,78.1667 352.5,79.5C 351.5,79.1667 350.833,78.5 350.5,77.5 Z"/></g>
<g><path style="opacity:0.38" fill="#585a61" d="M 352.5,79.5 C 354.262,80.2623 355.262,81.5956 355.5,83.5C 353.738,82.7377 352.738,81.4044 352.5,79.5 Z"/></g>
<g><path style="opacity:0.663" fill="#6e6e6e" d="M 148.5,77.5 C 147.478,80.5223 145.478,82.5223 142.5,83.5C 144.215,81.1182 146.215,79.1182 148.5,77.5 Z"/></g>
<g><path style="opacity:0.361" fill="#5a5a5a" d="M 228.5,78.5 C 229.945,81.9365 230.945,85.6032 231.5,89.5C 229.432,86.237 228.432,82.5704 228.5,78.5 Z"/></g>
<g><path style="opacity:0.024" fill="#101010" d="M 269.5,81.5 C 269.279,84.0673 268.612,86.4006 267.5,88.5C 267.171,85.7718 267.837,83.4385 269.5,81.5 Z"/></g>
<g><path style="opacity:0.008" fill="#191919" d="M 355.5,83.5 C 356.833,83.5 357.5,84.1667 357.5,85.5C 356.5,85.1667 355.833,84.5 355.5,83.5 Z"/></g>
<g><path style="opacity:0.494" fill="#4c4c4c" d="M 357.5,85.5 C 358.833,86.1667 359.833,87.1667 360.5,88.5C 358.5,88.5 357.5,87.5 357.5,85.5 Z"/></g>
<g><path style="opacity:0.561" fill="#525355" d="M 142.5,83.5 C 140.938,87.3918 138.605,90.7251 135.5,93.5C 137.062,89.6082 139.395,86.2749 142.5,83.5 Z"/></g>
<g><path style="opacity:0.169" fill="#404040" d="M 363.5,93.5 C 364.906,93.9731 365.573,94.9731 365.5,96.5C 364.094,96.0269 363.427,95.0269 363.5,93.5 Z"/></g>
<g><path style="opacity:0.486" fill="#606060" d="M 133.5,95.5 C 133.715,97.1788 133.048,98.1788 131.5,98.5C 131.932,97.2905 132.599,96.2905 133.5,95.5 Z"/></g>
<g><path style="opacity:0.161" fill="#4f4f4f" d="M 365.5,96.5 C 366.906,96.9731 367.573,97.9731 367.5,99.5C 366.094,99.0269 365.427,98.0269 365.5,96.5 Z"/></g>
<g><path style="opacity:0.184" fill="#414141" d="M 368.5,101.5 C 369.906,101.973 370.573,102.973 370.5,104.5C 369.094,104.027 368.427,103.027 368.5,101.5 Z"/></g>
<g><path style="opacity:0.11" fill="#1d1d1d" d="M 129.5,102.5 C 129.573,104.027 128.906,105.027 127.5,105.5C 127.427,103.973 128.094,102.973 129.5,102.5 Z"/></g>
<g><path style="opacity:0.098" fill="#4a4a4a" d="M 127.5,106.5 C 127.573,108.027 126.906,109.027 125.5,109.5C 125.427,107.973 126.094,106.973 127.5,106.5 Z"/></g>
<g><path style="opacity:0.039" fill="#2f2f2f" d="M 371.5,106.5 C 372.906,106.973 373.573,107.973 373.5,109.5C 372.094,109.027 371.427,108.027 371.5,106.5 Z"/></g>
<g><path style="opacity:0.827" fill="#707070" d="M 119.5,124.5 C 120.715,125.779 120.382,126.779 118.5,127.5C 118.263,126.209 118.596,125.209 119.5,124.5 Z"/></g>
<g><path style="opacity:0.51" fill="#727272" d="M 234.5,119.5 C 235.742,129.352 235.742,139.352 234.5,149.5C 234.095,139.681 234.095,129.681 234.5,119.5 Z"/></g>
<g><path style="opacity:0.49" fill="#727272" d="M 264.5,114.5 C 264.743,127.684 264.743,140.684 264.5,153.5C 263.214,140.36 263.214,127.36 264.5,114.5 Z"/></g>
<g><path style="opacity:0.057" fill="#181819" d="M 81.5,164.5 C 77.1311,164.467 72.7978,164.8 68.5,165.5C 70.6345,163.967 73.1345,163.3 76,163.5C 78.0326,163.506 79.866,163.839 81.5,164.5 Z"/></g>
<g><path style="opacity:0.067" fill="#161617" d="M 430.5,165.5 C 425.175,164.239 419.842,164.239 414.5,165.5C 416.807,163.953 419.473,163.287 422.5,163.5C 425.527,163.287 428.193,163.953 430.5,165.5 Z"/></g>
<g><path style="opacity:1" fill="#e8c578" d="M 81.5,164.5 C 82.9587,164.433 84.2921,164.766 85.5,165.5C 86.287,167.104 87.6203,167.771 89.5,167.5C 89.8333,167.5 90.1667,167.5 90.5,167.5C 91.0347,169.446 92.368,170.446 94.5,170.5C 94.9731,171.906 95.9731,172.573 97.5,172.5C 98.5,172.833 99.1667,173.5 99.5,174.5C 101.5,178.5 104.5,181.5 108.5,183.5C 109.338,183.842 109.672,184.508 109.5,185.5C 109.5,187.5 110.5,188.5 112.5,188.5C 113.89,189.899 114.89,191.566 115.5,193.5C 115.427,195.027 116.094,196.027 117.5,196.5C 117.427,198.027 118.094,199.027 119.5,199.5C 121.924,202.008 123.59,205.008 124.5,208.5C 124.427,210.027 125.094,211.027 126.5,211.5C 127.737,212.965 128.737,214.632 129.5,216.5C 129.157,218.483 129.824,219.817 131.5,220.5C 132.11,221.391 132.443,222.391 132.5,223.5C 132.427,225.027 133.094,226.027 134.5,226.5C 145.058,247.062 147.058,268.395 140.5,290.5C 138.386,291.784 137.386,293.784 137.5,296.5C 135.73,301.713 132.73,306.047 128.5,309.5C 127.5,309.833 126.833,310.5 126.5,311.5C 125.694,312.728 124.694,313.728 123.5,314.5C 121.821,314.285 120.821,314.952 120.5,316.5C 120.167,316.5 119.833,316.5 119.5,316.5C 117.847,316.66 116.514,317.326 115.5,318.5C 110.355,321.535 104.688,322.868 98.5,322.5C 90.1483,322.497 82.4816,320.497 75.5,316.5C 75.0269,315.094 74.0269,314.427 72.5,314.5C 70.326,314.25 68.6594,313.25 67.5,311.5C 67.0269,310.094 66.0269,309.427 64.5,309.5C 63.5,306.5 61.5,304.5 58.5,303.5C 58.1667,301.167 56.8333,299.833 54.5,299.5C 54.5,297.5 53.5,296.5 51.5,296.5C 50.3995,295.395 49.7329,294.062 49.5,292.5C 49.1667,291.5 48.5,290.833 47.5,290.5C 47.7148,288.821 47.0481,287.821 45.5,287.5C 45.416,284.318 44.0827,281.985 41.5,280.5C 41.5,280.167 41.5,279.833 41.5,279.5C 40.9117,276.937 39.9117,274.604 38.5,272.5C 37.0278,269.731 35.8611,266.731 35,263.5C 32.2029,244.516 33.3695,225.85 38.5,207.5C 39.9313,206.22 40.5979,204.553 40.5,202.5C 40.8975,199.554 41.8975,196.887 43.5,194.5C 44.6737,193.486 45.3404,192.153 45.5,190.5C 45.6596,188.847 46.3263,187.514 47.5,186.5C 48.9063,186.027 49.573,185.027 49.5,183.5C 49.7329,181.938 50.3995,180.605 51.5,179.5C 53.5,179.5 54.5,178.5 54.5,176.5C 55.1224,174.878 56.1224,173.545 57.5,172.5C 59.4044,172.262 60.7377,171.262 61.5,169.5C 63.3356,167.412 65.6689,166.079 68.5,165.5C 72.7978,164.8 77.1311,164.467 81.5,164.5 Z"/></g>
<g><path style="opacity:1" fill="#e9c578" d="M 430.5,165.5 C 432.819,165.992 434.819,166.992 436.5,168.5C 437.585,170.587 439.251,171.92 441.5,172.5C 443.262,173.262 444.262,174.596 444.5,176.5C 444.5,178.5 445.5,179.5 447.5,179.5C 448.6,180.605 449.267,181.938 449.5,183.5C 449.285,185.179 449.952,186.179 451.5,186.5C 451.5,186.833 451.5,187.167 451.5,187.5C 451.427,189.027 452.094,190.027 453.5,190.5C 455.403,193.53 456.737,196.863 457.5,200.5C 457.12,202.698 457.787,204.365 459.5,205.5C 461.383,209.609 462.383,213.943 462.5,218.5C 462.676,221.727 463.343,224.727 464.5,227.5C 465.859,239.179 465.693,250.845 464,262.5C 463.183,267.11 461.683,271.443 459.5,275.5C 457.896,276.287 457.229,277.62 457.5,279.5C 457.008,281.819 456.008,283.819 454.5,285.5C 453.094,285.973 452.427,286.973 452.5,288.5C 452.167,289.167 451.833,289.833 451.5,290.5C 450.5,290.833 449.833,291.5 449.5,292.5C 445.548,299.453 440.214,305.12 433.5,309.5C 432.167,309.5 431.5,310.167 431.5,311.5C 431.167,311.5 430.833,311.5 430.5,311.5C 429.5,311.833 428.833,312.5 428.5,313.5C 417.111,321.509 404.445,324.175 390.5,321.5C 389.365,319.787 387.698,319.12 385.5,319.5C 384.391,319.443 383.391,319.11 382.5,318.5C 382.027,317.094 381.027,316.427 379.5,316.5C 377.326,316.25 375.659,315.25 374.5,313.5C 374.167,312.5 373.5,311.833 372.5,311.5C 372.167,310.5 371.5,309.833 370.5,309.5C 368.086,308.089 366.419,306.089 365.5,303.5C 365.446,301.368 364.446,300.035 362.5,299.5C 354.465,283.744 352.465,267.078 356.5,249.5C 358.472,246.916 359.472,243.916 359.5,240.5C 359.394,237.921 360.061,235.588 361.5,233.5C 362.674,232.486 363.34,231.153 363.5,229.5C 363.328,228.508 363.662,227.842 364.5,227.5C 366.293,225.574 367.293,223.241 367.5,220.5C 369.104,219.713 369.771,218.38 369.5,216.5C 371.25,215.341 372.25,213.674 372.5,211.5C 373.674,210.486 374.34,209.153 374.5,207.5C 376.25,206.341 377.25,204.674 377.5,202.5C 377.328,201.508 377.662,200.842 378.5,200.5C 380.741,199.7 381.741,198.034 381.5,195.5C 383.446,194.965 384.446,193.632 384.5,191.5C 386.048,191.179 386.715,190.179 386.5,188.5C 388.929,187.735 390.262,186.069 390.5,183.5C 392.71,183.106 394.043,181.773 394.5,179.5C 394.5,178.833 394.833,178.5 395.5,178.5C 400.196,175.127 404.53,171.46 408.5,167.5C 410.214,166.262 412.214,165.595 414.5,165.5C 419.842,164.239 425.175,164.239 430.5,165.5 Z"/></g>
<g><path style="opacity:0.204" fill="#404040" d="M 85.5,165.5 C 87.153,165.66 88.4863,166.326 89.5,167.5C 87.6203,167.771 86.287,167.104 85.5,165.5 Z"/></g>
<g><path style="opacity:0.31" fill="#737373" d="M 381.5,163.5 C 381.084,166.583 380.417,169.583 379.5,172.5C 378.957,172.44 378.624,172.107 378.5,171.5C 379.009,168.538 380.009,165.871 381.5,163.5 Z"/></g>
<g><path style="opacity:0.322" fill="#7d7d7d" d="M 117.5,164.5 C 119.138,165.705 119.471,167.038 118.5,168.5C 117.766,167.292 117.433,165.959 117.5,164.5 Z"/></g>
<g><path style="opacity:0.537" fill="#5f5f5f" d="M 90.5,167.5 C 92.2303,168.026 93.5637,169.026 94.5,170.5C 92.368,170.446 91.0347,169.446 90.5,167.5 Z"/></g>
<g><path style="opacity:0.004" fill="#1c1c1c" d="M 436.5,168.5 C 438.749,169.08 440.415,170.413 441.5,172.5C 439.251,171.92 437.585,170.587 436.5,168.5 Z"/></g>
<g><path style="opacity:0.251" fill="#757575" d="M 232.5,166.5 C 232.567,167.959 232.234,169.292 231.5,170.5C 230.529,169.038 230.862,167.705 232.5,166.5 Z"/></g>
<g><path style="opacity:0.2" fill="#2f2f2f" d="M 61.5,169.5 C 60.7377,171.262 59.4044,172.262 57.5,172.5C 58.2623,170.738 59.5956,169.738 61.5,169.5 Z"/></g>
<g><path style="opacity:0.004" fill="#1d1d1d" d="M 94.5,170.5 C 96.0269,170.427 97.0269,171.094 97.5,172.5C 95.9731,172.573 94.9731,171.906 94.5,170.5 Z"/></g>
<g><path style="opacity:0.294" fill="#4e4e4e" d="M 408.5,167.5 C 404.53,171.46 400.196,175.127 395.5,178.5C 398.858,173.819 403.191,170.152 408.5,167.5 Z"/></g>
<g><path style="opacity:0.22" fill="#595959" d="M 231.5,171.5 C 230.871,174.397 229.871,177.064 228.5,179.5C 228.345,176.284 229.345,173.617 231.5,171.5 Z"/></g>
<g><path style="opacity:0.639" fill="#737373" d="M 99.5,174.5 C 102.833,177.167 105.833,180.167 108.5,183.5C 104.5,181.5 101.5,178.5 99.5,174.5 Z"/></g>
<g><path style="opacity:0.216" fill="#4a4a4a" d="M 118.5,169.5 C 120.279,172.915 121.613,176.581 122.5,180.5C 120.115,177.347 118.782,173.68 118.5,169.5 Z"/></g>
<g><path style="opacity:0.624" fill="#656565" d="M 444.5,176.5 C 445.833,177.167 446.833,178.167 447.5,179.5C 445.5,179.5 444.5,178.5 444.5,176.5 Z"/></g>
<g><path style="opacity:0.388" fill="#6d6d6d" d="M 54.5,176.5 C 54.5,178.5 53.5,179.5 51.5,179.5C 52.1667,178.167 53.1667,177.167 54.5,176.5 Z"/></g>
<g><path style="opacity:0.322" fill="#494949" d="M 270.5,180.5 C 272.539,181.911 273.539,183.911 273.5,186.5C 271.461,185.089 270.461,183.089 270.5,180.5 Z"/></g>
<g><path style="opacity:0.62" fill="#4d4d4d" d="M 394.5,179.5 C 394.043,181.773 392.71,183.106 390.5,183.5C 391.402,181.659 392.736,180.326 394.5,179.5 Z"/></g>
<g><path style="opacity:0.141" fill="#3c3c3c" d="M 122.5,182.5 C 124.104,183.287 124.771,184.62 124.5,186.5C 123.326,185.486 122.66,184.153 122.5,182.5 Z"/></g>
<g><path style="opacity:0.263" fill="#393939" d="M 390.5,183.5 C 390.262,186.069 388.929,187.735 386.5,188.5C 387.124,186.246 388.457,184.579 390.5,183.5 Z"/></g>
<g><path style="opacity:0.173" fill="#363636" d="M 49.5,183.5 C 49.573,185.027 48.9063,186.027 47.5,186.5C 47.427,184.973 48.0937,183.973 49.5,183.5 Z"/></g>
<g><path style="opacity:0.18" fill="#3a3a3a" d="M 449.5,183.5 C 450.906,183.973 451.573,184.973 451.5,186.5C 449.952,186.179 449.285,185.179 449.5,183.5 Z"/></g>
<g><path style="opacity:0.494" fill="#767676" d="M 109.5,185.5 C 110.833,186.167 111.833,187.167 112.5,188.5C 110.5,188.5 109.5,187.5 109.5,185.5 Z"/></g>
<g><path style="opacity:0.196" fill="#404040" d="M 273.5,186.5 C 274.931,187.78 275.598,189.447 275.5,191.5C 274.069,190.22 273.402,188.553 273.5,186.5 Z"/></g>
<g><path style="opacity:0.2" fill="#464646" d="M 451.5,187.5 C 452.906,187.973 453.573,188.973 453.5,190.5C 452.094,190.027 451.427,189.027 451.5,187.5 Z"/></g>
<g><path style="opacity:0.667" fill="#595959" d="M 386.5,188.5 C 386.715,190.179 386.048,191.179 384.5,191.5C 384.932,190.29 385.599,189.29 386.5,188.5 Z"/></g>
<g><path style="opacity:0.231" fill="#292929" d="M 45.5,190.5 C 45.3404,192.153 44.6737,193.486 43.5,194.5C 43.2291,192.62 43.8958,191.287 45.5,190.5 Z"/></g>
<g><path style="opacity:0.02" fill="#393939" d="M 224.5,189.5 C 224.573,191.027 223.906,192.027 222.5,192.5C 222.427,190.973 223.094,189.973 224.5,189.5 Z"/></g>
<g><path style="opacity:0.267" fill="#3a3a3a" d="M 384.5,191.5 C 384.446,193.632 383.446,194.965 381.5,195.5C 382.026,193.77 383.026,192.436 384.5,191.5 Z"/></g>
<g><path style="opacity:0.024" fill="#0f0f0f" d="M 127.5,193.5 C 128.906,193.973 129.573,194.973 129.5,196.5C 128.094,196.027 127.427,195.027 127.5,193.5 Z"/></g>
<g><path style="opacity:0.278" fill="#545454" d="M 115.5,193.5 C 116.906,193.973 117.573,194.973 117.5,196.5C 116.094,196.027 115.427,195.027 115.5,193.5 Z"/></g>
<g><path style="opacity:0.161" fill="#3d3d3d" d="M 117.5,196.5 C 118.906,196.973 119.573,197.973 119.5,199.5C 118.094,199.027 117.427,198.027 117.5,196.5 Z"/></g>
<g><path style="opacity:0.227" fill="#444444" d="M 381.5,195.5 C 381.741,198.034 380.741,199.7 378.5,200.5C 379.263,198.632 380.263,196.965 381.5,195.5 Z"/></g>
<g><path style="opacity:0.004" fill="#2f2f2f" d="M 130.5,198.5 C 132.048,198.821 132.715,199.821 132.5,201.5C 131.599,200.71 130.932,199.71 130.5,198.5 Z"/></g>
<g><path style="opacity:0.008" fill="#2b2b2b" d="M 279.5,198.5 C 281.446,199.035 282.446,200.368 282.5,202.5C 281.026,201.564 280.026,200.23 279.5,198.5 Z"/></g>
<g><path style="opacity:0.455" fill="#4f4f4f" d="M 282.5,202.5 C 284.71,202.894 286.043,204.227 286.5,206.5C 284.736,205.674 283.402,204.341 282.5,202.5 Z"/></g>
<g><path style="opacity:0.035" fill="#2e2e2e" d="M 365.5,201.5 C 365.573,203.027 364.906,204.027 363.5,204.5C 363.427,202.973 364.094,201.973 365.5,201.5 Z"/></g>
<g><path style="opacity:0.824" fill="#717171" d="M 457.5,200.5 C 458.931,201.78 459.598,203.447 459.5,205.5C 457.787,204.365 457.12,202.698 457.5,200.5 Z"/></g>
<g><path style="opacity:0.022" fill="#121212" d="M 40.5,202.5 C 40.5979,204.553 39.9313,206.22 38.5,207.5C 38.4021,205.447 39.0687,203.78 40.5,202.5 Z"/></g>
<g><path style="opacity:0.082" fill="#202127" d="M 377.5,202.5 C 377.25,204.674 376.25,206.341 374.5,207.5C 374.75,205.326 375.75,203.659 377.5,202.5 Z"/></g>
<g><path style="opacity:0.02" fill="#262626" d="M 135.5,204.5 C 136.5,204.833 137.167,205.5 137.5,206.5C 136.167,206.5 135.5,205.833 135.5,204.5 Z"/></g>
<g><path style="opacity:0.004" fill="#1c1c1c" d="M 363.5,204.5 C 363.5,205.833 362.833,206.5 361.5,206.5C 361.833,205.5 362.5,204.833 363.5,204.5 Z"/></g>
<g><path style="opacity:0.004" fill="#121212" d="M 212.5,206.5 C 212.5,207.833 211.833,208.5 210.5,208.5C 210.833,207.5 211.5,206.833 212.5,206.5 Z"/></g>
<g><path style="opacity:0.016" fill="#1d1d1d" d="M 286.5,206.5 C 288.833,208.167 290.833,210.167 292.5,212.5C 289.5,211.5 287.5,209.5 286.5,206.5 Z"/></g>
<g><path style="opacity:0.525" fill="#2d313c" d="M 138.5,208.5 C 139.833,208.5 140.5,209.167 140.5,210.5C 139.5,210.167 138.833,209.5 138.5,208.5 Z"/></g>
<g><path style="opacity:0.235" fill="#1e1e1e" d="M 374.5,207.5 C 374.34,209.153 373.674,210.486 372.5,211.5C 372.229,209.62 372.896,208.287 374.5,207.5 Z"/></g>
<g><path style="opacity:0.145" fill="#464646" d="M 124.5,208.5 C 125.906,208.973 126.573,209.973 126.5,211.5C 125.094,211.027 124.427,210.027 124.5,208.5 Z"/></g>
<g><path style="opacity:0.463" fill="#4d4d4d" d="M 292.5,212.5 C 293.833,212.5 294.5,213.167 294.5,214.5C 293.5,214.167 292.833,213.5 292.5,212.5 Z"/></g>
<g><path style="opacity:0.129" fill="#222222" d="M 142.5,212.5 C 144.027,212.427 145.027,213.094 145.5,214.5C 143.973,214.573 142.973,213.906 142.5,212.5 Z"/></g>
<g><path style="opacity:0.11" fill="#17171a" d="M 372.5,211.5 C 372.25,213.674 371.25,215.341 369.5,216.5C 369.75,214.326 370.75,212.659 372.5,211.5 Z"/></g>
<g><path style="opacity:0.114" fill="#141414" d="M 294.5,214.5 C 296.027,214.427 297.027,215.094 297.5,216.5C 295.973,216.573 294.973,215.906 294.5,214.5 Z"/></g>
<g><path style="opacity:0.098" fill="#3e3e3e" d="M 148.5,216.5 C 150.027,216.427 151.027,217.094 151.5,218.5C 149.973,218.573 148.973,217.906 148.5,216.5 Z"/></g>
<g><path style="opacity:0.161" fill="#393939" d="M 299.5,217.5 C 301.027,217.427 302.027,218.094 302.5,219.5C 300.973,219.573 299.973,218.906 299.5,217.5 Z"/></g>
<g><path style="opacity:0.988" fill="#333643" d="M 129.5,216.5 C 130.674,217.514 131.34,218.847 131.5,220.5C 129.824,219.817 129.157,218.483 129.5,216.5 Z"/></g>
<g><path style="opacity:0.004" fill="#1d1d1d" d="M 198.5,218.5 C 197.486,219.674 196.153,220.34 194.5,220.5C 195.287,218.896 196.62,218.229 198.5,218.5 Z"/></g>
<g><path style="opacity:0.008" fill="#272727" d="M 347.5,218.5 C 346.486,219.674 345.153,220.34 343.5,220.5C 344.287,218.896 345.62,218.229 347.5,218.5 Z"/></g>
<g><path style="opacity:0.145" fill="#171719" d="M 369.5,216.5 C 369.771,218.38 369.104,219.713 367.5,220.5C 367.66,218.847 368.326,217.514 369.5,216.5 Z"/></g>
<g><path style="opacity:0.027" fill="#1e1e20" d="M 462.5,218.5 C 464.118,221.171 464.785,224.171 464.5,227.5C 463.343,224.727 462.676,221.727 462.5,218.5 Z"/></g>
<g><path style="opacity:0.086" fill="#1e1e1e" d="M 367.5,220.5 C 367.293,223.241 366.293,225.574 364.5,227.5C 364.707,224.759 365.707,222.426 367.5,220.5 Z"/></g>
<g><path style="opacity:0.016" fill="#181818" d="M 132.5,223.5 C 133.906,223.973 134.573,224.973 134.5,226.5C 133.094,226.027 132.427,225.027 132.5,223.5 Z"/></g>
<g><path style="opacity:0.196" fill="#232324" d="M 238.5,225.5 C 245.833,224.167 253.167,224.167 260.5,225.5C 253.475,225.561 246.141,225.561 238.5,225.5 Z"/></g>
<g><path style="opacity:1" fill="#eac778" d="M 238.5,225.5 C 246.141,225.561 253.475,225.561 260.5,225.5C 262.5,225.833 264.5,226.167 266.5,226.5C 268.102,228.074 270.102,228.741 272.5,228.5C 275.079,228.394 277.412,229.061 279.5,230.5C 280.784,232.614 282.784,233.614 285.5,233.5C 286.492,233.328 287.158,233.662 287.5,234.5C 288.29,235.401 289.29,236.068 290.5,236.5C 290.833,236.5 291.167,236.5 291.5,236.5C 291.821,238.048 292.821,238.715 294.5,238.5C 296.404,238.738 297.738,239.738 298.5,241.5C 298.973,242.906 299.973,243.573 301.5,243.5C 301.894,245.71 303.227,247.043 305.5,247.5C 306.167,249.5 307.5,250.833 309.5,251.5C 309.5,252.833 310.167,253.5 311.5,253.5C 311.554,255.632 312.554,256.965 314.5,257.5C 316.669,259.34 318.002,261.674 318.5,264.5C 318.427,266.027 319.094,267.027 320.5,267.5C 321.674,268.514 322.34,269.847 322.5,271.5C 322.66,273.153 323.326,274.486 324.5,275.5C 326.213,276.635 326.88,278.302 326.5,280.5C 326.427,282.027 327.094,283.027 328.5,283.5C 329.338,283.842 329.672,284.508 329.5,285.5C 329.427,287.027 330.094,288.027 331.5,288.5C 332.752,290.001 333.752,291.668 334.5,293.5C 334.5,295.5 335.5,296.5 337.5,296.5C 337.285,298.179 337.952,299.179 339.5,299.5C 339.833,300.5 340.5,301.167 341.5,301.5C 342.833,302.167 343.833,303.167 344.5,304.5C 344.973,305.906 345.973,306.573 347.5,306.5C 347.821,308.048 348.821,308.715 350.5,308.5C 350.821,310.048 351.821,310.715 353.5,310.5C 355.5,311.833 357.5,313.167 359.5,314.5C 360.035,316.446 361.368,317.446 363.5,317.5C 363.973,318.906 364.973,319.573 366.5,319.5C 367.167,319.5 367.5,319.833 367.5,320.5C 368.262,322.262 369.596,323.262 371.5,323.5C 372.144,326.144 373.811,327.811 376.5,328.5C 376.833,329.5 377.5,330.167 378.5,330.5C 379.757,333.427 381.757,335.761 384.5,337.5C 384.427,339.027 385.094,340.027 386.5,340.5C 387.89,341.899 388.89,343.566 389.5,345.5C 389.427,347.027 390.094,348.027 391.5,348.5C 396.653,357.102 399.653,366.435 400.5,376.5C 399.167,381.167 399.167,385.833 400.5,390.5C 400.326,392.861 399.993,395.194 399.5,397.5C 398.069,398.78 397.402,400.447 397.5,402.5C 397.5,403.5 397.5,404.5 397.5,405.5C 395.952,405.821 395.285,406.821 395.5,408.5C 395.598,410.553 394.931,412.22 393.5,413.5C 392.167,413.5 391.5,414.167 391.5,415.5C 391.737,416.791 391.404,417.791 390.5,418.5C 388.952,418.821 388.285,419.821 388.5,421.5C 380.208,431.823 369.875,439.49 357.5,444.5C 355.102,444.259 353.102,444.926 351.5,446.5C 348.314,448.874 344.647,449.874 340.5,449.5C 337.848,449.41 335.515,450.076 333.5,451.5C 317.701,453.228 302.034,452.561 286.5,449.5C 285.365,447.787 283.698,447.12 281.5,447.5C 277.922,446.708 274.588,445.375 271.5,443.5C 271.027,442.094 270.027,441.427 268.5,441.5C 267.391,441.443 266.391,441.11 265.5,440.5C 265.179,438.952 264.179,438.285 262.5,438.5C 258.316,437.126 253.982,436.46 249.5,436.5C 245.018,436.46 240.684,437.126 236.5,438.5C 234.847,438.66 233.514,439.326 232.5,440.5C 232.158,441.338 231.492,441.672 230.5,441.5C 228.821,441.285 227.821,441.952 227.5,443.5C 213.281,450.629 198.114,453.629 182,452.5C 172.993,452.703 164.16,451.703 155.5,449.5C 154.22,448.069 152.553,447.402 150.5,447.5C 148.708,447.634 147.042,447.301 145.5,446.5C 144.514,444.592 142.848,443.592 140.5,443.5C 138.447,443.598 136.78,442.931 135.5,441.5C 134.994,439.895 134.327,439.561 133.5,440.5C 131.147,439.66 129.147,438.326 127.5,436.5C 127.027,435.094 126.027,434.427 124.5,434.5C 123.508,434.672 122.842,434.338 122.5,433.5C 122.5,431.5 121.5,430.5 119.5,430.5C 118.833,429.167 117.833,428.167 116.5,427.5C 116.167,426.5 115.5,425.833 114.5,425.5C 112.738,424.738 111.738,423.404 111.5,421.5C 111.167,420.5 110.5,419.833 109.5,419.5C 107.333,417.17 105.666,414.503 104.5,411.5C 104.88,409.302 104.213,407.635 102.5,406.5C 99.2994,399.134 97.9661,391.3 98.5,383C 98.0308,372.838 100.031,363.338 104.5,354.5C 106.048,354.179 106.715,353.179 106.5,351.5C 106.5,351.167 106.5,350.833 106.5,350.5C 107.974,349.564 108.974,348.23 109.5,346.5C 109.5,346.167 109.5,345.833 109.5,345.5C 110.906,345.027 111.573,344.027 111.5,342.5C 113.104,341.713 113.771,340.38 113.5,338.5C 113.833,338.5 114.167,338.5 114.5,338.5C 116.727,337.599 117.727,335.933 117.5,333.5C 120.144,332.856 121.811,331.189 122.5,328.5C 123.833,327.833 124.833,326.833 125.5,325.5C 128.522,324.478 130.522,322.478 131.5,319.5C 132.795,318.512 134.128,317.512 135.5,316.5C 139.061,314.952 142.394,312.952 145.5,310.5C 148.266,308.741 150.266,306.407 151.5,303.5C 151.5,302.833 151.833,302.5 152.5,302.5C 153.833,302.5 154.5,301.833 154.5,300.5C 155.833,300.5 156.5,299.833 156.5,298.5C 157.167,297.167 158.167,296.167 159.5,295.5C 161.912,295.306 162.912,293.973 162.5,291.5C 164.048,291.179 164.715,290.179 164.5,288.5C 166.048,288.179 166.715,287.179 166.5,285.5C 167.906,285.027 168.573,284.027 168.5,282.5C 170.25,281.341 171.25,279.674 171.5,277.5C 171.328,276.508 171.662,275.842 172.5,275.5C 173.906,275.027 174.573,274.027 174.5,272.5C 175.906,272.027 176.573,271.027 176.5,269.5C 176.5,269.167 176.5,268.833 176.5,268.5C 177.906,268.027 178.573,267.027 178.5,265.5C 178.328,264.508 178.662,263.842 179.5,263.5C 181.048,263.179 181.715,262.179 181.5,260.5C 183.912,260.306 184.912,258.973 184.5,256.5C 186.531,255.461 187.864,253.795 188.5,251.5C 188.5,250.833 188.833,250.5 189.5,250.5C 192.764,248.906 195.431,246.573 197.5,243.5C 198.833,243.5 199.5,242.833 199.5,241.5C 202.704,240.617 205.371,238.95 207.5,236.5C 209.027,236.573 210.027,235.906 210.5,234.5C 210.833,234.5 211.167,234.5 211.5,234.5C 213.848,234.408 215.514,233.408 216.5,231.5C 217.391,230.89 218.391,230.557 219.5,230.5C 224.519,230.038 229.186,228.704 233.5,226.5C 235.042,225.699 236.708,225.366 238.5,225.5 Z"/></g>
<g><path style="opacity:0.014" fill="#212121" d="M 266.5,226.5 C 268.898,226.259 270.898,226.926 272.5,228.5C 270.102,228.741 268.102,228.074 266.5,226.5 Z"/></g>
<g><path style="opacity:0.475" fill="#505154" d="M 233.5,226.5 C 229.186,228.704 224.519,230.038 219.5,230.5C 223.783,228.188 228.45,226.855 233.5,226.5 Z"/></g>
<g><path style="opacity:0.22" fill="#1d1d1d" d="M 363.5,229.5 C 363.34,231.153 362.674,232.486 361.5,233.5C 361.229,231.62 361.896,230.287 363.5,229.5 Z"/></g>
<g><path style="opacity:0.976" fill="#4f4f50" d="M 216.5,231.5 C 215.514,233.408 213.848,234.408 211.5,234.5C 212.659,232.75 214.326,231.75 216.5,231.5 Z"/></g>
<g><path style="opacity:0.259" fill="#4b4b4d" d="M 279.5,230.5 C 281.819,230.992 283.819,231.992 285.5,233.5C 282.784,233.614 280.784,232.614 279.5,230.5 Z"/></g>
<g><path style="opacity:0.029" fill="#141414" d="M 287.5,234.5 C 289.179,234.285 290.179,234.952 290.5,236.5C 289.29,236.068 288.29,235.401 287.5,234.5 Z"/></g>
<g><path style="opacity:0.322" fill="#282828" d="M 210.5,234.5 C 210.027,235.906 209.027,236.573 207.5,236.5C 207.973,235.094 208.973,234.427 210.5,234.5 Z"/></g>
<g><path style="opacity:0.102" fill="#242424" d="M 207.5,236.5 C 205.371,238.95 202.704,240.617 199.5,241.5C 201.629,239.05 204.296,237.383 207.5,236.5 Z"/></g>
<g><path style="opacity:0.729" fill="#353845" d="M 291.5,236.5 C 293.027,236.427 294.027,237.094 294.5,238.5C 292.821,238.715 291.821,238.048 291.5,236.5 Z"/></g>
<g><path style="opacity:0.031" fill="#2e2e2e" d="M 298.5,241.5 C 300.027,241.427 301.027,242.094 301.5,243.5C 299.973,243.573 298.973,242.906 298.5,241.5 Z"/></g>
<g><path style="opacity:0.522" fill="#494949" d="M 199.5,241.5 C 199.5,242.833 198.833,243.5 197.5,243.5C 197.833,242.5 198.5,241.833 199.5,241.5 Z"/></g>
<g><path style="opacity:0.596" fill="#696969" d="M 301.5,243.5 C 303.341,244.402 304.674,245.736 305.5,247.5C 303.227,247.043 301.894,245.71 301.5,243.5 Z"/></g>
<g><path style="opacity:0.549" fill="#515256" d="M 359.5,240.5 C 359.472,243.916 358.472,246.916 356.5,249.5C 356.747,246.146 357.747,243.146 359.5,240.5 Z"/></g>
<g><path style="opacity:0.298" fill="#2d2d2f" d="M 197.5,243.5 C 195.431,246.573 192.764,248.906 189.5,250.5C 191.569,247.427 194.236,245.094 197.5,243.5 Z"/></g>
<g><path style="opacity:0.212" fill="#494949" d="M 305.5,247.5 C 307.5,248.167 308.833,249.5 309.5,251.5C 307.5,250.833 306.167,249.5 305.5,247.5 Z"/></g>
<g><path style="opacity:0.086" fill="#2a2c32" d="M 309.5,251.5 C 310.833,251.5 311.5,252.167 311.5,253.5C 311.5,252.167 310.833,251.5 309.5,251.5 Z"/></g>
<g><path style="opacity:0.169" fill="#272727" d="M 188.5,251.5 C 187.864,253.795 186.531,255.461 184.5,256.5C 185.124,254.246 186.457,252.579 188.5,251.5 Z"/></g>
<g><path style="opacity:0.251" fill="#434346" d="M 311.5,253.5 C 312.974,254.436 313.974,255.77 314.5,257.5C 312.554,256.965 311.554,255.632 311.5,253.5 Z"/></g>
<g><path style="opacity:0.227" fill="#414141" d="M 184.5,256.5 C 184.912,258.973 183.912,260.306 181.5,260.5C 182.026,258.77 183.026,257.436 184.5,256.5 Z"/></g>
<g><path style="opacity:0.686" fill="#5b5b5b" d="M 181.5,260.5 C 181.715,262.179 181.048,263.179 179.5,263.5C 179.932,262.29 180.599,261.29 181.5,260.5 Z"/></g>
<g><path style="opacity:0.306" fill="#555555" d="M 318.5,264.5 C 319.906,264.973 320.573,265.973 320.5,267.5C 319.094,267.027 318.427,266.027 318.5,264.5 Z"/></g>
<g><path style="opacity:0.067" fill="#121212" d="M 178.5,265.5 C 178.573,267.027 177.906,268.027 176.5,268.5C 176.427,266.973 177.094,265.973 178.5,265.5 Z"/></g>
<g><path style="opacity:0.282" fill="#383838" d="M 176.5,269.5 C 176.573,271.027 175.906,272.027 174.5,272.5C 174.427,270.973 175.094,269.973 176.5,269.5 Z"/></g>
<g><path style="opacity:0.063" fill="#414141" d="M 322.5,271.5 C 324.104,272.287 324.771,273.62 324.5,275.5C 323.326,274.486 322.66,273.153 322.5,271.5 Z"/></g>
<g><path style="opacity:0.022" fill="#313131" d="M 38.5,272.5 C 39.9117,274.604 40.9117,276.937 41.5,279.5C 39.1824,277.815 38.1824,275.481 38.5,272.5 Z"/></g>
<g><path style="opacity:0.129" fill="#1a1a1a" d="M 174.5,272.5 C 174.573,274.027 173.906,275.027 172.5,275.5C 172.427,273.973 173.094,272.973 174.5,272.5 Z"/></g>
<g><path style="opacity:0.231" fill="#444444" d="M 459.5,275.5 C 459.34,277.153 458.674,278.486 457.5,279.5C 457.229,277.62 457.896,276.287 459.5,275.5 Z"/></g>
<g><path style="opacity:0.157" fill="#232323" d="M 171.5,277.5 C 171.25,279.674 170.25,281.341 168.5,282.5C 168.75,280.326 169.75,278.659 171.5,277.5 Z"/></g>
<g><path style="opacity:0.729" fill="#5d5d5f" d="M 41.5,280.5 C 44.0827,281.985 45.416,284.318 45.5,287.5C 43.9291,285.365 42.5957,283.032 41.5,280.5 Z"/></g>
<g><path style="opacity:0.129" fill="#333333" d="M 326.5,280.5 C 327.906,280.973 328.573,281.973 328.5,283.5C 327.094,283.027 326.427,282.027 326.5,280.5 Z"/></g>
<g><path style="opacity:0.114" fill="#1d1d1d" d="M 168.5,282.5 C 168.573,284.027 167.906,285.027 166.5,285.5C 166.427,283.973 167.094,282.973 168.5,282.5 Z"/></g>
<g><path style="opacity:0.012" fill="#212227" d="M 454.5,285.5 C 454.573,287.027 453.906,288.027 452.5,288.5C 452.427,286.973 453.094,285.973 454.5,285.5 Z"/></g>
<g><path style="opacity:0.702" fill="#525252" d="M 166.5,285.5 C 166.715,287.179 166.048,288.179 164.5,288.5C 164.932,287.29 165.599,286.29 166.5,285.5 Z"/></g>
<g><path style="opacity:0.055" fill="#1c1c1c" d="M 329.5,285.5 C 330.906,285.973 331.573,286.973 331.5,288.5C 330.094,288.027 329.427,287.027 329.5,285.5 Z"/></g>
<g><path style="opacity:0.027" fill="#363636" d="M 45.5,287.5 C 47.0481,287.821 47.7148,288.821 47.5,290.5C 46.5987,289.71 45.9321,288.71 45.5,287.5 Z"/></g>
<g><path style="opacity:0.561" fill="#535353" d="M 164.5,288.5 C 164.715,290.179 164.048,291.179 162.5,291.5C 162.932,290.29 163.599,289.29 164.5,288.5 Z"/></g>
<g><path style="opacity:0.008" fill="#1d1d1d" d="M 47.5,290.5 C 48.5,290.833 49.1667,291.5 49.5,292.5C 48.1667,292.5 47.5,291.833 47.5,290.5 Z"/></g>
<g><path style="opacity:0.004" fill="#1e1e1e" d="M 451.5,290.5 C 451.5,291.833 450.833,292.5 449.5,292.5C 449.833,291.5 450.5,290.833 451.5,290.5 Z"/></g>
<g><path style="opacity:0.022" fill="#3c3c3c" d="M 140.5,290.5 C 140.088,292.887 139.088,294.887 137.5,296.5C 137.386,293.784 138.386,291.784 140.5,290.5 Z"/></g>
<g><path style="opacity:0.584" fill="#575757" d="M 162.5,291.5 C 162.912,293.973 161.912,295.306 159.5,295.5C 160.512,294.128 161.512,292.795 162.5,291.5 Z"/></g>
<g><path style="opacity:0.569" fill="#707070" d="M 334.5,293.5 C 335.833,294.167 336.833,295.167 337.5,296.5C 335.5,296.5 334.5,295.5 334.5,293.5 Z"/></g>
<g><path style="opacity:0.373" fill="#505050" d="M 51.5,296.5 C 53.5,296.5 54.5,297.5 54.5,299.5C 53.1667,298.833 52.1667,297.833 51.5,296.5 Z"/></g>
<g><path style="opacity:0.176" fill="#454545" d="M 337.5,296.5 C 338.906,296.973 339.573,297.973 339.5,299.5C 337.952,299.179 337.285,298.179 337.5,296.5 Z"/></g>
<g><path style="opacity:0.639" fill="#7e7e7e" d="M 54.5,299.5 C 56.8333,299.833 58.1667,301.167 58.5,303.5C 56.8333,302.5 55.5,301.167 54.5,299.5 Z"/></g>
<g><path style="opacity:0.541" fill="#232735" d="M 156.5,298.5 C 156.5,299.833 155.833,300.5 154.5,300.5C 154.833,299.5 155.5,298.833 156.5,298.5 Z"/></g>
<g><path style="opacity:0.004" fill="#212121" d="M 339.5,299.5 C 340.833,299.5 341.5,300.167 341.5,301.5C 340.5,301.167 339.833,300.5 339.5,299.5 Z"/></g>
<g><path style="opacity:0.573" fill="#5a5a5a" d="M 362.5,299.5 C 364.446,300.035 365.446,301.368 365.5,303.5C 364.026,302.564 363.026,301.23 362.5,299.5 Z"/></g>
<g><path style="opacity:0.533" fill="#222735" d="M 154.5,300.5 C 154.5,301.833 153.833,302.5 152.5,302.5C 152.833,301.5 153.5,300.833 154.5,300.5 Z"/></g>
<g><path style="opacity:0.824" fill="#6a6a6a" d="M 58.5,303.5 C 61.5,304.5 63.5,306.5 64.5,309.5C 62.1667,307.833 60.1667,305.833 58.5,303.5 Z"/></g>
<g><path style="opacity:0.016" fill="#2a2a2a" d="M 344.5,304.5 C 346.027,304.427 347.027,305.094 347.5,306.5C 345.973,306.573 344.973,305.906 344.5,304.5 Z"/></g>
<g><path style="opacity:0.851" fill="#565656" d="M 347.5,306.5 C 348.71,306.932 349.71,307.599 350.5,308.5C 348.821,308.715 347.821,308.048 347.5,306.5 Z"/></g>
<g><path style="opacity:0.008" fill="#282828" d="M 350.5,308.5 C 351.71,308.932 352.71,309.599 353.5,310.5C 351.821,310.715 350.821,310.048 350.5,308.5 Z"/></g>
<g><path style="opacity:0.059" fill="#202020" d="M 64.5,309.5 C 66.0269,309.427 67.0269,310.094 67.5,311.5C 65.9731,311.573 64.9731,310.906 64.5,309.5 Z"/></g>
<g><path style="opacity:0.004" fill="#212121" d="M 128.5,309.5 C 128.5,310.833 127.833,311.5 126.5,311.5C 126.833,310.5 127.5,309.833 128.5,309.5 Z"/></g>
<g><path style="opacity:0.514" fill="#4b4b4b" d="M 151.5,303.5 C 150.266,306.407 148.266,308.741 145.5,310.5C 142.394,312.952 139.061,314.952 135.5,316.5C 140.809,312.197 146.142,307.863 151.5,303.5 Z"/></g>
<g><path style="opacity:0.004" fill="#1c1c1c" d="M 370.5,309.5 C 371.5,309.833 372.167,310.5 372.5,311.5C 371.167,311.5 370.5,310.833 370.5,309.5 Z"/></g>
<g><path style="opacity:0.004" fill="#25262a" d="M 433.5,309.5 C 433.5,310.833 432.833,311.5 431.5,311.5C 431.5,310.167 432.167,309.5 433.5,309.5 Z"/></g>
<g><path style="opacity:0.004" fill="#121212" d="M 372.5,311.5 C 373.5,311.833 374.167,312.5 374.5,313.5C 373.167,313.5 372.5,312.833 372.5,311.5 Z"/></g>
<g><path style="opacity:0.008" fill="#24262c" d="M 430.5,311.5 C 430.5,312.833 429.833,313.5 428.5,313.5C 428.833,312.5 429.5,311.833 430.5,311.5 Z"/></g>
<g><path style="opacity:0.114" fill="#383838" d="M 123.5,314.5 C 122.71,315.401 121.71,316.068 120.5,316.5C 120.821,314.952 121.821,314.285 123.5,314.5 Z"/></g>
<g><path style="opacity:0.067" fill="#464646" d="M 72.5,314.5 C 74.0269,314.427 75.0269,315.094 75.5,316.5C 73.9731,316.573 72.9731,315.906 72.5,314.5 Z"/></g>
<g><path style="opacity:0.008" fill="#34353a" d="M 359.5,314.5 C 361.23,315.026 362.564,316.026 363.5,317.5C 361.368,317.446 360.035,316.446 359.5,314.5 Z"/></g>
<g><path style="opacity:0.102" fill="#5c5c5c" d="M 119.5,316.5 C 118.713,318.104 117.38,318.771 115.5,318.5C 116.514,317.326 117.847,316.66 119.5,316.5 Z"/></g>
<g><path style="opacity:0.004" fill="#1d1e23" d="M 363.5,317.5 C 365.027,317.427 366.027,318.094 366.5,319.5C 364.973,319.573 363.973,318.906 363.5,317.5 Z"/></g>
<g><path style="opacity:0.106" fill="#454545" d="M 379.5,316.5 C 381.027,316.427 382.027,317.094 382.5,318.5C 380.973,318.573 379.973,317.906 379.5,316.5 Z"/></g>
<g><path style="opacity:0.459" fill="#727272" d="M 385.5,319.5 C 387.698,319.12 389.365,319.787 390.5,321.5C 388.597,321.204 386.93,320.537 385.5,319.5 Z"/></g>
<g><path style="opacity:0.016" fill="#212228" d="M 367.5,320.5 C 369.404,320.738 370.738,321.738 371.5,323.5C 369.596,323.262 368.262,322.262 367.5,320.5 Z"/></g>
<g><path style="opacity:0.522" fill="#555556" d="M 131.5,319.5 C 130.522,322.478 128.522,324.478 125.5,325.5C 127.118,323.215 129.118,321.215 131.5,319.5 Z"/></g>
<g><path style="opacity:0.165" fill="#525252" d="M 371.5,323.5 C 373.911,324.517 375.578,326.184 376.5,328.5C 373.811,327.811 372.144,326.144 371.5,323.5 Z"/></g>
<g><path style="opacity:0.224" fill="#222222" d="M 125.5,325.5 C 124.833,326.833 123.833,327.833 122.5,328.5C 122.5,326.5 123.5,325.5 125.5,325.5 Z"/></g>
<g><path style="opacity:0.004" fill="#131313" d="M 376.5,328.5 C 377.833,328.5 378.5,329.167 378.5,330.5C 377.5,330.167 376.833,329.5 376.5,328.5 Z"/></g>
<g><path style="opacity:0.584" fill="#5f5f5f" d="M 122.5,328.5 C 121.811,331.189 120.144,332.856 117.5,333.5C 118.882,331.451 120.548,329.785 122.5,328.5 Z"/></g>
<g><path style="opacity:0.231" fill="#3d3d3d" d="M 378.5,330.5 C 381.243,332.239 383.243,334.573 384.5,337.5C 381.757,335.761 379.757,333.427 378.5,330.5 Z"/></g>
<g><path style="opacity:0.62" fill="#5f5f5f" d="M 117.5,333.5 C 117.727,335.933 116.727,337.599 114.5,338.5C 115.11,336.566 116.11,334.899 117.5,333.5 Z"/></g>
<g><path style="opacity:0.125" fill="#434343" d="M 384.5,337.5 C 385.906,337.973 386.573,338.973 386.5,340.5C 385.094,340.027 384.427,339.027 384.5,337.5 Z"/></g>
<g><path style="opacity:0.231" fill="#363636" d="M 113.5,338.5 C 113.771,340.38 113.104,341.713 111.5,342.5C 111.66,340.847 112.326,339.514 113.5,338.5 Z"/></g>
<g><path style="opacity:0.243" fill="#333333" d="M 111.5,342.5 C 111.573,344.027 110.906,345.027 109.5,345.5C 109.427,343.973 110.094,342.973 111.5,342.5 Z"/></g>
<g><path style="opacity:0.086" fill="#2b2b2b" d="M 109.5,346.5 C 108.974,348.23 107.974,349.564 106.5,350.5C 106.554,348.368 107.554,347.035 109.5,346.5 Z"/></g>
<g><path style="opacity:0.133" fill="#3d3d3d" d="M 389.5,345.5 C 390.906,345.973 391.573,346.973 391.5,348.5C 390.094,348.027 389.427,347.027 389.5,345.5 Z"/></g>
<g><path style="opacity:0.765" fill="#828282" d="M 106.5,351.5 C 106.715,353.179 106.048,354.179 104.5,354.5C 104.932,353.29 105.599,352.29 106.5,351.5 Z"/></g>
<g><path style="opacity:0.416" fill="#999999" d="M 400.5,376.5 C 401.741,381.177 401.741,385.843 400.5,390.5C 399.167,385.833 399.167,381.167 400.5,376.5 Z"/></g>
<g><path style="opacity:0.188" fill="#6d6d6d" d="M 399.5,397.5 C 399.598,399.553 398.931,401.22 397.5,402.5C 397.402,400.447 398.069,398.78 399.5,397.5 Z"/></g>
<g><path style="opacity:0.153" fill="#646464" d="M 397.5,405.5 C 397.068,406.71 396.401,407.71 395.5,408.5C 395.285,406.821 395.952,405.821 397.5,405.5 Z"/></g>
<g><path style="opacity:0.173" fill="#3f3f3f" d="M 102.5,406.5 C 104.213,407.635 104.88,409.302 104.5,411.5C 103.463,410.07 102.796,408.403 102.5,406.5 Z"/></g>
<g><path style="opacity:0.137" fill="#525356" d="M 393.5,413.5 C 393.5,414.833 392.833,415.5 391.5,415.5C 391.5,414.167 392.167,413.5 393.5,413.5 Z"/></g>
<g><path style="opacity:0.137" fill="#4c4c4c" d="M 390.5,418.5 C 390.068,419.71 389.401,420.71 388.5,421.5C 388.285,419.821 388.952,418.821 390.5,418.5 Z"/></g>
<g><path style="opacity:0.004" fill="#1c1c1c" d="M 109.5,419.5 C 110.5,419.833 111.167,420.5 111.5,421.5C 110.167,421.5 109.5,420.833 109.5,419.5 Z"/></g>
<g><path style="opacity:0.004" fill="#181818" d="M 114.5,425.5 C 115.5,425.833 116.167,426.5 116.5,427.5C 115.167,427.5 114.5,426.833 114.5,425.5 Z"/></g>
<g><path style="opacity:0.004" fill="#252525" d="M 116.5,427.5 C 117.833,428.167 118.833,429.167 119.5,430.5C 117.5,430.5 116.5,429.5 116.5,427.5 Z"/></g>
<g><path style="opacity:0.392" fill="#686868" d="M 119.5,430.5 C 121.5,430.5 122.5,431.5 122.5,433.5C 121.167,432.833 120.167,431.833 119.5,430.5 Z"/></g>
<g><path style="opacity:0.467" fill="#8d8d8d" d="M 124.5,434.5 C 126.027,434.427 127.027,435.094 127.5,436.5C 125.973,436.573 124.973,435.906 124.5,434.5 Z"/></g>
<g><path style="opacity:0.059" fill="#3c3c3c" d="M 236.5,438.5 C 235.713,440.104 234.38,440.771 232.5,440.5C 233.514,439.326 234.847,438.66 236.5,438.5 Z"/></g>
<g><path style="opacity:0.063" fill="#3d3d3d" d="M 262.5,438.5 C 264.179,438.285 265.179,438.952 265.5,440.5C 263.973,440.573 262.973,439.906 262.5,438.5 Z"/></g>
<g><path style="opacity:0.051" fill="#454751" d="M 135.5,441.5 C 134.508,441.672 133.842,441.338 133.5,440.5C 134.327,439.561 134.994,439.895 135.5,441.5 Z"/></g>
<g><path style="opacity:0.161" fill="#666666" d="M 230.5,441.5 C 229.71,442.401 228.71,443.068 227.5,443.5C 227.821,441.952 228.821,441.285 230.5,441.5 Z"/></g>
<g><path style="opacity:0.043" fill="#313131" d="M 268.5,441.5 C 270.027,441.427 271.027,442.094 271.5,443.5C 269.973,443.573 268.973,442.906 268.5,441.5 Z"/></g>
<g><path style="opacity:0.11" fill="#5c5c60" d="M 140.5,443.5 C 142.848,443.592 144.514,444.592 145.5,446.5C 143.435,446.047 141.768,445.047 140.5,443.5 Z"/></g>
<g><path style="opacity:0.09" fill="#5a5a5a" d="M 357.5,444.5 C 355.786,445.738 353.786,446.405 351.5,446.5C 353.102,444.926 355.102,444.259 357.5,444.5 Z"/></g>
<g><path style="opacity:0.475" fill="#6c6c6c" d="M 281.5,447.5 C 283.698,447.12 285.365,447.787 286.5,449.5C 284.447,449.598 282.78,448.931 281.5,447.5 Z"/></g>
<g><path style="opacity:0.031" fill="#404040" d="M 150.5,447.5 C 152.553,447.402 154.22,448.069 155.5,449.5C 153.447,449.598 151.78,448.931 150.5,447.5 Z"/></g>
<g><path style="opacity:0.014" fill="#262628" d="M 340.5,449.5 C 338.562,451.163 336.228,451.829 333.5,451.5C 335.515,450.076 337.848,449.41 340.5,449.5 Z"/></g>
</svg>
